<svg width="153" height="358" viewBox="0 0 153 358" fill="none" xmlns="http://www.w3.org/2000/svg">
<g opacity="0.03" filter="url(#filter0_d)">
<path fill-rule="evenodd" clip-rule="evenodd" d="M151.191 0.0336914C184.607 0.0336914 217.051 11.3083 242.631 31.7831V31.7823C276.047 58.5118 295.701 96.5177 298.078 138.773C300.355 180.49 284.752 221.306 255.288 250.748L157.617 347.066C153.833 350.813 147.271 350.78 143.487 347.033L47.196 250.817C17.6649 221.309 2.02863 180.46 4.33889 138.773C6.68232 96.5202 26.37 58.5144 59.7515 31.7831C85.2986 11.3083 117.777 0.0336914 151.191 0.0336914ZM85.5669 146.908C85.5669 183.073 114.997 212.481 151.191 212.481C187.385 212.481 216.85 183.074 216.816 146.908C216.816 110.743 187.386 81.335 151.191 81.335C114.998 81.335 85.5669 110.742 85.5669 146.908Z" fill="white"/>
<path d="M151.191 114.946C133.546 114.946 119.216 129.266 119.216 146.897C119.216 164.528 133.546 178.848 151.191 178.848C168.837 178.848 183.167 164.528 183.167 146.897C183.167 129.266 168.837 114.946 151.191 114.946Z" fill="white"/>
</g>
<defs>
<filter id="filter0_d" x="0.114746" y="0.0336914" width="302.182" height="357.826" filterUnits="userSpaceOnUse" color-interpolation-filters="sRGB">
<feFlood flood-opacity="0" result="BackgroundImageFix"/>
<feColorMatrix in="SourceAlpha" type="matrix" values="0 0 0 0 0 0 0 0 0 0 0 0 0 0 0 0 0 0 127 0"/>
<feOffset dy="4"/>
<feGaussianBlur stdDeviation="2"/>
<feColorMatrix type="matrix" values="0 0 0 0 0 0 0 0 0 0 0 0 0 0 0 0 0 0 0.25 0"/>
<feBlend mode="normal" in2="BackgroundImageFix" result="effect1_dropShadow"/>
<feBlend mode="normal" in="SourceGraphic" in2="effect1_dropShadow" result="shape"/>
</filter>
</defs>
</svg>
